<mxfile host="app.diagrams.net" agent="Mozilla/5.0 (Windows NT 10.0; Win64; x64) AppleWebKit/537.36 (KHTML, like Gecko) Chrome/131.0.0.0 Safari/537.36" version="24.8.6">
  <diagram name="Page-1" id="Gow4pM9SDmEtE8Ydtkyq">
    <mxGraphModel dx="1458" dy="922" grid="1" gridSize="10" guides="1" tooltips="1" connect="1" arrows="1" fold="1" page="1" pageScale="1" pageWidth="850" pageHeight="1100" math="0" shadow="0">
      <root>
        <mxCell id="0" />
        <mxCell id="1" parent="0" />
        <mxCell id="Au43CTBbteAkCsGPj-LN-2" value="" style="edgeStyle=orthogonalEdgeStyle;rounded=0;orthogonalLoop=1;jettySize=auto;html=1;" parent="1" source="BmzkBxsxmNTsoxMmM2bQ-1" target="BmzkBxsxmNTsoxMmM2bQ-4" edge="1">
          <mxGeometry relative="1" as="geometry" />
        </mxCell>
        <mxCell id="BmzkBxsxmNTsoxMmM2bQ-1" value="Wake up in a cabin with a front and back entrance, along with two chests" style="rounded=1;whiteSpace=wrap;html=1;" parent="1" vertex="1">
          <mxGeometry x="360" width="120" height="70" as="geometry" />
        </mxCell>
        <mxCell id="BmzkBxsxmNTsoxMmM2bQ-7" style="edgeStyle=orthogonalEdgeStyle;rounded=0;orthogonalLoop=1;jettySize=auto;html=1;exitX=1;exitY=0.5;exitDx=0;exitDy=0;" parent="1" source="BmzkBxsxmNTsoxMmM2bQ-4" target="BmzkBxsxmNTsoxMmM2bQ-6" edge="1">
          <mxGeometry relative="1" as="geometry" />
        </mxCell>
        <mxCell id="Au43CTBbteAkCsGPj-LN-1" value="" style="edgeStyle=orthogonalEdgeStyle;rounded=0;orthogonalLoop=1;jettySize=auto;html=1;" parent="1" source="BmzkBxsxmNTsoxMmM2bQ-4" target="BmzkBxsxmNTsoxMmM2bQ-8" edge="1">
          <mxGeometry relative="1" as="geometry" />
        </mxCell>
        <mxCell id="BmzkBxsxmNTsoxMmM2bQ-4" value="A wolf appears at the back entrance and is about to enter, which chest do you pick?" style="rounded=0;whiteSpace=wrap;html=1;" parent="1" vertex="1">
          <mxGeometry x="360" y="120" width="120" height="60" as="geometry" />
        </mxCell>
        <mxCell id="BmzkBxsxmNTsoxMmM2bQ-21" value="" style="edgeStyle=orthogonalEdgeStyle;rounded=0;orthogonalLoop=1;jettySize=auto;html=1;" parent="1" source="BmzkBxsxmNTsoxMmM2bQ-6" target="BmzkBxsxmNTsoxMmM2bQ-10" edge="1">
          <mxGeometry relative="1" as="geometry" />
        </mxCell>
        <mxCell id="BmzkBxsxmNTsoxMmM2bQ-6" value="&lt;font style=&quot;font-size: 10px;&quot;&gt;First aid kit and bear spray&lt;/font&gt;" style="rhombus;whiteSpace=wrap;html=1;" parent="1" vertex="1">
          <mxGeometry x="520" y="110" width="100" height="80" as="geometry" />
        </mxCell>
        <mxCell id="BmzkBxsxmNTsoxMmM2bQ-30" value="" style="edgeStyle=orthogonalEdgeStyle;rounded=0;orthogonalLoop=1;jettySize=auto;html=1;" parent="1" source="BmzkBxsxmNTsoxMmM2bQ-8" target="BmzkBxsxmNTsoxMmM2bQ-24" edge="1">
          <mxGeometry relative="1" as="geometry" />
        </mxCell>
        <mxCell id="BmzkBxsxmNTsoxMmM2bQ-8" value="&lt;font style=&quot;font-size: 10px;&quot;&gt;Old revolver (2/6) and flashlight&lt;/font&gt;" style="rhombus;whiteSpace=wrap;html=1;" parent="1" vertex="1">
          <mxGeometry x="220" y="110" width="110" height="80" as="geometry" />
        </mxCell>
        <mxCell id="BmzkBxsxmNTsoxMmM2bQ-23" value="" style="edgeStyle=orthogonalEdgeStyle;rounded=0;orthogonalLoop=1;jettySize=auto;html=1;" parent="1" source="BmzkBxsxmNTsoxMmM2bQ-10" target="BmzkBxsxmNTsoxMmM2bQ-15" edge="1">
          <mxGeometry relative="1" as="geometry" />
        </mxCell>
        <mxCell id="BmzkBxsxmNTsoxMmM2bQ-10" value="You leave through the front door and lock it, trapping the wolf, and see two paths, one leading up the mountain you&#39;re on, and on leading down." style="whiteSpace=wrap;html=1;aspect=fixed;" parent="1" vertex="1">
          <mxGeometry x="507.5" y="220" width="125" height="125" as="geometry" />
        </mxCell>
        <mxCell id="BmzkBxsxmNTsoxMmM2bQ-37" value="" style="edgeStyle=orthogonalEdgeStyle;rounded=0;orthogonalLoop=1;jettySize=auto;html=1;" parent="1" source="BmzkBxsxmNTsoxMmM2bQ-12" target="BmzkBxsxmNTsoxMmM2bQ-34" edge="1">
          <mxGeometry relative="1" as="geometry" />
        </mxCell>
        <mxCell id="BmzkBxsxmNTsoxMmM2bQ-12" value="Up the mountain" style="rhombus;whiteSpace=wrap;html=1;" parent="1" vertex="1">
          <mxGeometry x="417.5" y="370" width="80" height="80" as="geometry" />
        </mxCell>
        <mxCell id="gim3D4EE_I01u1yyUH6l-2" value="" style="edgeStyle=orthogonalEdgeStyle;rounded=0;orthogonalLoop=1;jettySize=auto;html=1;" parent="1" source="BmzkBxsxmNTsoxMmM2bQ-13" target="gim3D4EE_I01u1yyUH6l-1" edge="1">
          <mxGeometry relative="1" as="geometry" />
        </mxCell>
        <mxCell id="BmzkBxsxmNTsoxMmM2bQ-13" value="Down the mountain" style="rhombus;whiteSpace=wrap;html=1;" parent="1" vertex="1">
          <mxGeometry x="640" y="370" width="80" height="80" as="geometry" />
        </mxCell>
        <mxCell id="BmzkBxsxmNTsoxMmM2bQ-17" value="" style="edgeStyle=orthogonalEdgeStyle;rounded=0;orthogonalLoop=1;jettySize=auto;html=1;" parent="1" source="BmzkBxsxmNTsoxMmM2bQ-15" target="BmzkBxsxmNTsoxMmM2bQ-12" edge="1">
          <mxGeometry relative="1" as="geometry" />
        </mxCell>
        <mxCell id="BmzkBxsxmNTsoxMmM2bQ-18" value="" style="edgeStyle=orthogonalEdgeStyle;rounded=0;orthogonalLoop=1;jettySize=auto;html=1;" parent="1" source="BmzkBxsxmNTsoxMmM2bQ-15" target="BmzkBxsxmNTsoxMmM2bQ-13" edge="1">
          <mxGeometry relative="1" as="geometry" />
        </mxCell>
        <mxCell id="BmzkBxsxmNTsoxMmM2bQ-15" value="Which do you take?" style="whiteSpace=wrap;html=1;aspect=fixed;" parent="1" vertex="1">
          <mxGeometry x="530" y="370" width="80" height="80" as="geometry" />
        </mxCell>
        <mxCell id="BmzkBxsxmNTsoxMmM2bQ-27" value="" style="edgeStyle=orthogonalEdgeStyle;rounded=0;orthogonalLoop=1;jettySize=auto;html=1;" parent="1" source="BmzkBxsxmNTsoxMmM2bQ-24" target="BmzkBxsxmNTsoxMmM2bQ-25" edge="1">
          <mxGeometry relative="1" as="geometry" />
        </mxCell>
        <mxCell id="BmzkBxsxmNTsoxMmM2bQ-28" value="" style="edgeStyle=orthogonalEdgeStyle;rounded=0;orthogonalLoop=1;jettySize=auto;html=1;" parent="1" source="BmzkBxsxmNTsoxMmM2bQ-24" target="BmzkBxsxmNTsoxMmM2bQ-26" edge="1">
          <mxGeometry relative="1" as="geometry" />
        </mxCell>
        <mxCell id="BmzkBxsxmNTsoxMmM2bQ-24" value="Do you take a shot at the wolf or run and lock it in?" style="whiteSpace=wrap;html=1;aspect=fixed;" parent="1" vertex="1">
          <mxGeometry x="235" y="242.5" width="80" height="80" as="geometry" />
        </mxCell>
        <mxCell id="BmzkBxsxmNTsoxMmM2bQ-32" value="" style="edgeStyle=orthogonalEdgeStyle;rounded=0;orthogonalLoop=1;jettySize=auto;html=1;" parent="1" source="BmzkBxsxmNTsoxMmM2bQ-25" target="BmzkBxsxmNTsoxMmM2bQ-31" edge="1">
          <mxGeometry relative="1" as="geometry" />
        </mxCell>
        <mxCell id="BmzkBxsxmNTsoxMmM2bQ-25" value="Take a shot" style="rhombus;whiteSpace=wrap;html=1;" parent="1" vertex="1">
          <mxGeometry x="90" y="242.5" width="80" height="80" as="geometry" />
        </mxCell>
        <mxCell id="BmzkBxsxmNTsoxMmM2bQ-29" value="" style="edgeStyle=orthogonalEdgeStyle;rounded=0;orthogonalLoop=1;jettySize=auto;html=1;" parent="1" source="BmzkBxsxmNTsoxMmM2bQ-26" target="BmzkBxsxmNTsoxMmM2bQ-10" edge="1">
          <mxGeometry relative="1" as="geometry" />
        </mxCell>
        <mxCell id="BmzkBxsxmNTsoxMmM2bQ-26" value="&lt;font style=&quot;font-size: 10px;&quot;&gt;Run and lock&amp;nbsp; it in?&lt;/font&gt;" style="rhombus;whiteSpace=wrap;html=1;" parent="1" vertex="1">
          <mxGeometry x="370" y="242.5" width="80" height="80" as="geometry" />
        </mxCell>
        <mxCell id="BmzkBxsxmNTsoxMmM2bQ-31" value="You use two bullets to kill the wolf but run out of ammo. You take the items of the second chest and spot a map behind the wolf. The map show only two locations, one via the path going up the mountain to a mini base with better equipment and the possibility of a better path, and the one going down the mountain.&amp;nbsp;&lt;div&gt;The map doesn&#39;t cover the end of that path&lt;/div&gt;" style="whiteSpace=wrap;html=1;aspect=fixed;" parent="1" vertex="1">
          <mxGeometry x="35" y="370" width="190" height="190" as="geometry" />
        </mxCell>
        <mxCell id="BmzkBxsxmNTsoxMmM2bQ-54" value="" style="edgeStyle=orthogonalEdgeStyle;rounded=0;orthogonalLoop=1;jettySize=auto;html=1;" parent="1" source="BmzkBxsxmNTsoxMmM2bQ-34" target="BmzkBxsxmNTsoxMmM2bQ-38" edge="1">
          <mxGeometry relative="1" as="geometry" />
        </mxCell>
        <mxCell id="BmzkBxsxmNTsoxMmM2bQ-55" value="" style="edgeStyle=orthogonalEdgeStyle;rounded=0;orthogonalLoop=1;jettySize=auto;html=1;" parent="1" source="BmzkBxsxmNTsoxMmM2bQ-34" target="BmzkBxsxmNTsoxMmM2bQ-39" edge="1">
          <mxGeometry relative="1" as="geometry" />
        </mxCell>
        <mxCell id="BmzkBxsxmNTsoxMmM2bQ-34" value="After an hour of trekking you hear some noise up ahead" style="whiteSpace=wrap;html=1;aspect=fixed;" parent="1" vertex="1">
          <mxGeometry x="418" y="480" width="80" height="80" as="geometry" />
        </mxCell>
        <mxCell id="BmzkBxsxmNTsoxMmM2bQ-35" value="Items:&amp;nbsp;&lt;div&gt;1. Revolver (2/6) or (0/6)&lt;/div&gt;&lt;div&gt;&lt;span style=&quot;background-color: initial;&quot;&gt;2. Flashlight&lt;/span&gt;&lt;/div&gt;&lt;div&gt;&lt;span style=&quot;background-color: initial;&quot;&gt;3. First aid kit&lt;/span&gt;&lt;/div&gt;&lt;div&gt;&lt;span style=&quot;background-color: initial;&quot;&gt;4. Bear spray&amp;nbsp;&lt;/span&gt;&lt;/div&gt;&lt;div&gt;&lt;span style=&quot;background-color: initial;&quot;&gt;5. Map (Mini-base and downward path)&lt;/span&gt;&lt;/div&gt;" style="text;html=1;align=center;verticalAlign=middle;whiteSpace=wrap;rounded=0;" parent="1" vertex="1">
          <mxGeometry y="600" width="185" height="30" as="geometry" />
        </mxCell>
        <mxCell id="BmzkBxsxmNTsoxMmM2bQ-41" value="" style="edgeStyle=orthogonalEdgeStyle;rounded=0;orthogonalLoop=1;jettySize=auto;html=1;" parent="1" source="BmzkBxsxmNTsoxMmM2bQ-38" target="BmzkBxsxmNTsoxMmM2bQ-40" edge="1">
          <mxGeometry relative="1" as="geometry" />
        </mxCell>
        <mxCell id="BmzkBxsxmNTsoxMmM2bQ-38" value="Flashlight&amp;nbsp;" style="rhombus;whiteSpace=wrap;html=1;" parent="1" vertex="1">
          <mxGeometry x="302.5" y="480" width="80" height="80" as="geometry" />
        </mxCell>
        <mxCell id="BmzkBxsxmNTsoxMmM2bQ-48" value="" style="edgeStyle=orthogonalEdgeStyle;rounded=0;orthogonalLoop=1;jettySize=auto;html=1;" parent="1" source="BmzkBxsxmNTsoxMmM2bQ-39" target="BmzkBxsxmNTsoxMmM2bQ-46" edge="1">
          <mxGeometry relative="1" as="geometry" />
        </mxCell>
        <mxCell id="BmzkBxsxmNTsoxMmM2bQ-39" value="No flashlight" style="rhombus;whiteSpace=wrap;html=1;" parent="1" vertex="1">
          <mxGeometry x="530" y="480" width="80" height="80" as="geometry" />
        </mxCell>
        <mxCell id="BmzkBxsxmNTsoxMmM2bQ-43" value="" style="edgeStyle=orthogonalEdgeStyle;rounded=0;orthogonalLoop=1;jettySize=auto;html=1;" parent="1" source="BmzkBxsxmNTsoxMmM2bQ-40" target="BmzkBxsxmNTsoxMmM2bQ-42" edge="1">
          <mxGeometry relative="1" as="geometry" />
        </mxCell>
        <mxCell id="BmzkBxsxmNTsoxMmM2bQ-45" value="" style="edgeStyle=orthogonalEdgeStyle;rounded=0;orthogonalLoop=1;jettySize=auto;html=1;" parent="1" source="BmzkBxsxmNTsoxMmM2bQ-40" target="BmzkBxsxmNTsoxMmM2bQ-44" edge="1">
          <mxGeometry relative="1" as="geometry" />
        </mxCell>
        <mxCell id="BmzkBxsxmNTsoxMmM2bQ-40" value="Using your flashlight, you see a bear sleeping in its den. The bear has a backpack in its den." style="whiteSpace=wrap;html=1;aspect=fixed;" parent="1" vertex="1">
          <mxGeometry x="290" y="610.5" width="105" height="105" as="geometry" />
        </mxCell>
        <mxCell id="Xdzrd-eJbgTLkWl-TXUR-1" value="" style="edgeStyle=orthogonalEdgeStyle;rounded=0;orthogonalLoop=1;jettySize=auto;html=1;" parent="1" source="BmzkBxsxmNTsoxMmM2bQ-42" target="BmzkBxsxmNTsoxMmM2bQ-58" edge="1">
          <mxGeometry relative="1" as="geometry" />
        </mxCell>
        <mxCell id="BmzkBxsxmNTsoxMmM2bQ-42" value="&lt;font style=&quot;font-size: 10px;&quot;&gt;&lt;b&gt;IF&lt;/b&gt;&amp;nbsp;bear spray, carefully chase the bear away&lt;/font&gt;" style="rhombus;whiteSpace=wrap;html=1;" parent="1" vertex="1">
          <mxGeometry x="175" y="623" width="90" height="80" as="geometry" />
        </mxCell>
        <mxCell id="Xdzrd-eJbgTLkWl-TXUR-4" style="edgeStyle=orthogonalEdgeStyle;rounded=0;orthogonalLoop=1;jettySize=auto;html=1;" parent="1" source="BmzkBxsxmNTsoxMmM2bQ-44" target="Xdzrd-eJbgTLkWl-TXUR-3" edge="1">
          <mxGeometry relative="1" as="geometry" />
        </mxCell>
        <mxCell id="BmzkBxsxmNTsoxMmM2bQ-44" value="Go around stealthily" style="rhombus;whiteSpace=wrap;html=1;" parent="1" vertex="1">
          <mxGeometry x="417.5" y="623" width="80" height="80" as="geometry" />
        </mxCell>
        <mxCell id="BmzkBxsxmNTsoxMmM2bQ-49" value="" style="edgeStyle=orthogonalEdgeStyle;rounded=0;orthogonalLoop=1;jettySize=auto;html=1;" parent="1" source="BmzkBxsxmNTsoxMmM2bQ-46" target="BmzkBxsxmNTsoxMmM2bQ-44" edge="1">
          <mxGeometry relative="1" as="geometry" />
        </mxCell>
        <mxCell id="BmzkBxsxmNTsoxMmM2bQ-51" value="" style="edgeStyle=orthogonalEdgeStyle;rounded=0;orthogonalLoop=1;jettySize=auto;html=1;" parent="1" source="BmzkBxsxmNTsoxMmM2bQ-46" target="BmzkBxsxmNTsoxMmM2bQ-50" edge="1">
          <mxGeometry relative="1" as="geometry" />
        </mxCell>
        <mxCell id="BmzkBxsxmNTsoxMmM2bQ-46" value="You know there is something there, go around stealthily or check" style="whiteSpace=wrap;html=1;aspect=fixed;" parent="1" vertex="1">
          <mxGeometry x="525" y="618" width="90" height="90" as="geometry" />
        </mxCell>
        <mxCell id="BmzkBxsxmNTsoxMmM2bQ-53" value="" style="edgeStyle=orthogonalEdgeStyle;rounded=0;orthogonalLoop=1;jettySize=auto;html=1;" parent="1" source="BmzkBxsxmNTsoxMmM2bQ-50" target="BmzkBxsxmNTsoxMmM2bQ-52" edge="1">
          <mxGeometry relative="1" as="geometry" />
        </mxCell>
        <mxCell id="BmzkBxsxmNTsoxMmM2bQ-50" value="Check" style="rhombus;whiteSpace=wrap;html=1;" parent="1" vertex="1">
          <mxGeometry x="650" y="623" width="80" height="80" as="geometry" />
        </mxCell>
        <mxCell id="BmzkBxsxmNTsoxMmM2bQ-52" value="You find a bear, it wakes up, it charges at you before you can use bear spray, and kills you.&lt;div&gt;&lt;br&gt;&lt;/div&gt;&lt;div&gt;&lt;b&gt;GAME OVER&lt;/b&gt;&lt;/div&gt;" style="whiteSpace=wrap;html=1;" parent="1" vertex="1">
          <mxGeometry x="615" y="730" width="150" height="100" as="geometry" />
        </mxCell>
        <mxCell id="BmzkBxsxmNTsoxMmM2bQ-57" value="" style="curved=1;endArrow=classic;html=1;rounded=0;exitX=1;exitY=0.5;exitDx=0;exitDy=0;entryX=0.5;entryY=0;entryDx=0;entryDy=0;" parent="1" source="BmzkBxsxmNTsoxMmM2bQ-31" target="BmzkBxsxmNTsoxMmM2bQ-15" edge="1">
          <mxGeometry width="50" height="50" relative="1" as="geometry">
            <mxPoint x="280" y="430" as="sourcePoint" />
            <mxPoint x="585" y="360" as="targetPoint" />
            <Array as="points">
              <mxPoint x="335" y="430" />
              <mxPoint x="300" y="370" />
              <mxPoint x="435" y="330" />
            </Array>
          </mxGeometry>
        </mxCell>
        <mxCell id="Xdzrd-eJbgTLkWl-TXUR-5" style="edgeStyle=orthogonalEdgeStyle;rounded=0;orthogonalLoop=1;jettySize=auto;html=1;" parent="1" source="BmzkBxsxmNTsoxMmM2bQ-58" target="Xdzrd-eJbgTLkWl-TXUR-3" edge="1">
          <mxGeometry relative="1" as="geometry" />
        </mxCell>
        <mxCell id="BmzkBxsxmNTsoxMmM2bQ-58" value="You acquire the backpack.&lt;div&gt;Contents:&lt;/div&gt;&lt;div&gt;1. First aid kit&lt;/div&gt;&lt;div&gt;2. Revolver (3/6)&lt;/div&gt;&lt;div&gt;3. Bear spray&lt;/div&gt;&lt;div&gt;4. Knife&lt;/div&gt;&lt;div&gt;5. Rations (2 meals/bottle of water (purifying effect))&lt;/div&gt;&lt;div&gt;You sort items&lt;/div&gt;&lt;div&gt;&lt;div&gt;&lt;br&gt;&lt;/div&gt;&lt;/div&gt;" style="whiteSpace=wrap;html=1;aspect=fixed;" parent="1" vertex="1">
          <mxGeometry x="140" y="740" width="160" height="160" as="geometry" />
        </mxCell>
        <mxCell id="Xdzrd-eJbgTLkWl-TXUR-2" value="&lt;b&gt;&lt;font style=&quot;font-size: 14px;&quot;&gt;Sort items*&lt;/font&gt;&lt;/b&gt;" style="text;html=1;align=center;verticalAlign=middle;whiteSpace=wrap;rounded=0;" parent="1" vertex="1">
          <mxGeometry x="60" y="765" width="60" height="30" as="geometry" />
        </mxCell>
        <mxCell id="Xdzrd-eJbgTLkWl-TXUR-7" value="" style="edgeStyle=orthogonalEdgeStyle;rounded=0;orthogonalLoop=1;jettySize=auto;html=1;" parent="1" source="Xdzrd-eJbgTLkWl-TXUR-3" target="Xdzrd-eJbgTLkWl-TXUR-6" edge="1">
          <mxGeometry relative="1" as="geometry" />
        </mxCell>
        <mxCell id="Xdzrd-eJbgTLkWl-TXUR-3" value="You keep walking until up the mountain until you suddenly discover another human walking up ahead. He has a backpack and a revolver in hand." style="whiteSpace=wrap;html=1;aspect=fixed;" parent="1" vertex="1">
          <mxGeometry x="394.25" y="850" width="126.5" height="126.5" as="geometry" />
        </mxCell>
        <mxCell id="Xdzrd-eJbgTLkWl-TXUR-9" value="" style="edgeStyle=orthogonalEdgeStyle;rounded=0;orthogonalLoop=1;jettySize=auto;html=1;" parent="1" source="Xdzrd-eJbgTLkWl-TXUR-6" target="Xdzrd-eJbgTLkWl-TXUR-8" edge="1">
          <mxGeometry relative="1" as="geometry" />
        </mxCell>
        <mxCell id="Xdzrd-eJbgTLkWl-TXUR-11" value="" style="edgeStyle=orthogonalEdgeStyle;rounded=0;orthogonalLoop=1;jettySize=auto;html=1;" parent="1" source="Xdzrd-eJbgTLkWl-TXUR-6" target="Xdzrd-eJbgTLkWl-TXUR-10" edge="1">
          <mxGeometry relative="1" as="geometry" />
        </mxCell>
        <mxCell id="Xdzrd-eJbgTLkWl-TXUR-6" value="Approach or kill" style="whiteSpace=wrap;html=1;" parent="1" vertex="1">
          <mxGeometry x="398" y="1000" width="120" height="60" as="geometry" />
        </mxCell>
        <mxCell id="Xdzrd-eJbgTLkWl-TXUR-13" value="" style="edgeStyle=orthogonalEdgeStyle;rounded=0;orthogonalLoop=1;jettySize=auto;html=1;" parent="1" source="Xdzrd-eJbgTLkWl-TXUR-8" target="Xdzrd-eJbgTLkWl-TXUR-12" edge="1">
          <mxGeometry relative="1" as="geometry" />
        </mxCell>
        <mxCell id="Xdzrd-eJbgTLkWl-TXUR-8" value="Approach&amp;nbsp;" style="rhombus;whiteSpace=wrap;html=1;" parent="1" vertex="1">
          <mxGeometry x="290" y="990" width="80" height="80" as="geometry" />
        </mxCell>
        <mxCell id="Y9lRs_yaJHrwRUdyuxTt-2" value="" style="edgeStyle=orthogonalEdgeStyle;rounded=0;orthogonalLoop=1;jettySize=auto;html=1;" parent="1" source="Xdzrd-eJbgTLkWl-TXUR-10" target="Y9lRs_yaJHrwRUdyuxTt-1" edge="1">
          <mxGeometry relative="1" as="geometry" />
        </mxCell>
        <mxCell id="Xdzrd-eJbgTLkWl-TXUR-10" value="Kill" style="rhombus;whiteSpace=wrap;html=1;" parent="1" vertex="1">
          <mxGeometry x="540" y="990" width="80" height="80" as="geometry" />
        </mxCell>
        <mxCell id="Xdzrd-eJbgTLkWl-TXUR-15" value="" style="edgeStyle=orthogonalEdgeStyle;rounded=0;orthogonalLoop=1;jettySize=auto;html=1;" parent="1" source="Xdzrd-eJbgTLkWl-TXUR-12" target="Xdzrd-eJbgTLkWl-TXUR-14" edge="1">
          <mxGeometry relative="1" as="geometry" />
        </mxCell>
        <mxCell id="Xdzrd-eJbgTLkWl-TXUR-12" value="&lt;font style=&quot;font-size: 11px;&quot;&gt;You walk up to him, he notices you and asks who you are. You tell him your situation and he confirms the same happened to him. He says he has some supplies and threateningly asks if you have any.&amp;nbsp;&lt;/font&gt;" style="whiteSpace=wrap;html=1;aspect=fixed;" parent="1" vertex="1">
          <mxGeometry x="255" y="1110" width="150" height="150" as="geometry" />
        </mxCell>
        <mxCell id="Xdzrd-eJbgTLkWl-TXUR-17" value="" style="edgeStyle=orthogonalEdgeStyle;rounded=0;orthogonalLoop=1;jettySize=auto;html=1;" parent="1" source="Xdzrd-eJbgTLkWl-TXUR-14" target="Xdzrd-eJbgTLkWl-TXUR-16" edge="1">
          <mxGeometry relative="1" as="geometry" />
        </mxCell>
        <mxCell id="Xdzrd-eJbgTLkWl-TXUR-19" value="" style="edgeStyle=orthogonalEdgeStyle;rounded=0;orthogonalLoop=1;jettySize=auto;html=1;" parent="1" source="Xdzrd-eJbgTLkWl-TXUR-14" target="Xdzrd-eJbgTLkWl-TXUR-18" edge="1">
          <mxGeometry relative="1" as="geometry" />
        </mxCell>
        <mxCell id="Xdzrd-eJbgTLkWl-TXUR-14" value="Give him all your supplies or fight back" style="whiteSpace=wrap;html=1;" parent="1" vertex="1">
          <mxGeometry x="270" y="1310" width="120" height="60" as="geometry" />
        </mxCell>
        <mxCell id="Xdzrd-eJbgTLkWl-TXUR-23" value="" style="edgeStyle=orthogonalEdgeStyle;rounded=0;orthogonalLoop=1;jettySize=auto;html=1;" parent="1" source="Xdzrd-eJbgTLkWl-TXUR-16" target="Xdzrd-eJbgTLkWl-TXUR-22" edge="1">
          <mxGeometry relative="1" as="geometry" />
        </mxCell>
        <mxCell id="Xdzrd-eJbgTLkWl-TXUR-16" value="Give him all your supplies" style="rhombus;whiteSpace=wrap;html=1;" parent="1" vertex="1">
          <mxGeometry x="50" y="1300" width="120" height="80" as="geometry" />
        </mxCell>
        <mxCell id="Xdzrd-eJbgTLkWl-TXUR-21" value="" style="edgeStyle=orthogonalEdgeStyle;rounded=0;orthogonalLoop=1;jettySize=auto;html=1;" parent="1" source="Xdzrd-eJbgTLkWl-TXUR-18" target="Xdzrd-eJbgTLkWl-TXUR-20" edge="1">
          <mxGeometry relative="1" as="geometry" />
        </mxCell>
        <mxCell id="Xdzrd-eJbgTLkWl-TXUR-18" value="Fight back" style="rhombus;whiteSpace=wrap;html=1;" parent="1" vertex="1">
          <mxGeometry x="490" y="1300" width="80" height="80" as="geometry" />
        </mxCell>
        <mxCell id="Xdzrd-eJbgTLkWl-TXUR-20" value="He shoots you...you die&lt;div&gt;&lt;br&gt;&lt;/div&gt;&lt;div&gt;&lt;font style=&quot;font-size: 13px;&quot;&gt;&lt;b&gt;GAME OVER&lt;/b&gt;&lt;/font&gt;&lt;/div&gt;" style="whiteSpace=wrap;html=1;" parent="1" vertex="1">
          <mxGeometry x="470" y="1400" width="120" height="60" as="geometry" />
        </mxCell>
        <mxCell id="Xdzrd-eJbgTLkWl-TXUR-25" value="" style="edgeStyle=orthogonalEdgeStyle;rounded=0;orthogonalLoop=1;jettySize=auto;html=1;" parent="1" source="Xdzrd-eJbgTLkWl-TXUR-22" target="Xdzrd-eJbgTLkWl-TXUR-24" edge="1">
          <mxGeometry relative="1" as="geometry" />
        </mxCell>
        <mxCell id="Xdzrd-eJbgTLkWl-TXUR-22" value="He tells you to walk ahead of him and you both keep walking till you find two coyotes. He tells you to distract them which he kills them. You both keep working together till midnight. He starts a fire and tells you to watch it while he climbs a tree. He falls asleep close to sunrise.&amp;nbsp;" style="whiteSpace=wrap;html=1;" parent="1" vertex="1">
          <mxGeometry x="15" y="1410" width="190" height="170" as="geometry" />
        </mxCell>
        <mxCell id="Xdzrd-eJbgTLkWl-TXUR-27" value="" style="edgeStyle=orthogonalEdgeStyle;rounded=0;orthogonalLoop=1;jettySize=auto;html=1;" parent="1" source="Xdzrd-eJbgTLkWl-TXUR-24" target="Xdzrd-eJbgTLkWl-TXUR-26" edge="1">
          <mxGeometry relative="1" as="geometry" />
        </mxCell>
        <mxCell id="Xdzrd-eJbgTLkWl-TXUR-29" value="" style="edgeStyle=orthogonalEdgeStyle;rounded=0;orthogonalLoop=1;jettySize=auto;html=1;" parent="1" source="Xdzrd-eJbgTLkWl-TXUR-24" target="Xdzrd-eJbgTLkWl-TXUR-28" edge="1">
          <mxGeometry relative="1" as="geometry" />
        </mxCell>
        <mxCell id="Xdzrd-eJbgTLkWl-TXUR-24" value="Try to kill him and take your supplies back or stick with him" style="whiteSpace=wrap;html=1;" parent="1" vertex="1">
          <mxGeometry x="50" y="1620" width="120" height="60" as="geometry" />
        </mxCell>
        <mxCell id="Xdzrd-eJbgTLkWl-TXUR-49" value="" style="edgeStyle=orthogonalEdgeStyle;rounded=0;orthogonalLoop=1;jettySize=auto;html=1;" parent="1" source="Xdzrd-eJbgTLkWl-TXUR-26" target="Xdzrd-eJbgTLkWl-TXUR-30" edge="1">
          <mxGeometry relative="1" as="geometry" />
        </mxCell>
        <mxCell id="Xdzrd-eJbgTLkWl-TXUR-26" value="Kill him" style="rhombus;whiteSpace=wrap;html=1;" parent="1" vertex="1">
          <mxGeometry x="-130" y="1610" width="80" height="80" as="geometry" />
        </mxCell>
        <mxCell id="Y9lRs_yaJHrwRUdyuxTt-17" value="" style="edgeStyle=orthogonalEdgeStyle;rounded=0;orthogonalLoop=1;jettySize=auto;html=1;" parent="1" source="Xdzrd-eJbgTLkWl-TXUR-28" target="Y9lRs_yaJHrwRUdyuxTt-16" edge="1">
          <mxGeometry relative="1" as="geometry" />
        </mxCell>
        <mxCell id="Xdzrd-eJbgTLkWl-TXUR-28" value="Stick with him" style="rhombus;whiteSpace=wrap;html=1;" parent="1" vertex="1">
          <mxGeometry x="270" y="1610" width="80" height="80" as="geometry" />
        </mxCell>
        <mxCell id="Xdzrd-eJbgTLkWl-TXUR-34" value="" style="edgeStyle=orthogonalEdgeStyle;rounded=0;orthogonalLoop=1;jettySize=auto;html=1;" parent="1" source="Xdzrd-eJbgTLkWl-TXUR-30" target="Xdzrd-eJbgTLkWl-TXUR-33" edge="1">
          <mxGeometry relative="1" as="geometry" />
        </mxCell>
        <mxCell id="Xdzrd-eJbgTLkWl-TXUR-42" value="" style="edgeStyle=orthogonalEdgeStyle;rounded=0;orthogonalLoop=1;jettySize=auto;html=1;" parent="1" source="Xdzrd-eJbgTLkWl-TXUR-30" target="Xdzrd-eJbgTLkWl-TXUR-41" edge="1">
          <mxGeometry relative="1" as="geometry" />
        </mxCell>
        <mxCell id="Xdzrd-eJbgTLkWl-TXUR-30" value="Kill the fire and try to attack him when he comes down to check what happened or rush up the tree and attack him" style="whiteSpace=wrap;html=1;aspect=fixed;" parent="1" vertex="1">
          <mxGeometry x="-140" y="1730" width="100" height="100" as="geometry" />
        </mxCell>
        <mxCell id="Xdzrd-eJbgTLkWl-TXUR-38" value="" style="edgeStyle=orthogonalEdgeStyle;rounded=0;orthogonalLoop=1;jettySize=auto;html=1;" parent="1" source="Xdzrd-eJbgTLkWl-TXUR-33" target="Xdzrd-eJbgTLkWl-TXUR-37" edge="1">
          <mxGeometry relative="1" as="geometry" />
        </mxCell>
        <mxCell id="Xdzrd-eJbgTLkWl-TXUR-33" value="Rush him" style="rhombus;whiteSpace=wrap;html=1;" parent="1" vertex="1">
          <mxGeometry x="50" y="1740" width="80" height="80" as="geometry" />
        </mxCell>
        <mxCell id="Xdzrd-eJbgTLkWl-TXUR-37" value="He set up a warning system earlier. As you go up, he hears you and shoots you.&lt;div&gt;&lt;br&gt;&lt;/div&gt;&lt;div&gt;&lt;b&gt;GAME OVER&lt;/b&gt;&lt;/div&gt;" style="whiteSpace=wrap;html=1;" parent="1" vertex="1">
          <mxGeometry x="25" y="1860" width="130" height="100" as="geometry" />
        </mxCell>
        <mxCell id="Xdzrd-eJbgTLkWl-TXUR-44" value="" style="edgeStyle=orthogonalEdgeStyle;rounded=0;orthogonalLoop=1;jettySize=auto;html=1;" parent="1" source="Xdzrd-eJbgTLkWl-TXUR-41" target="Xdzrd-eJbgTLkWl-TXUR-43" edge="1">
          <mxGeometry relative="1" as="geometry" />
        </mxCell>
        <mxCell id="Xdzrd-eJbgTLkWl-TXUR-46" value="" style="edgeStyle=orthogonalEdgeStyle;rounded=0;orthogonalLoop=1;jettySize=auto;html=1;" parent="1" source="Xdzrd-eJbgTLkWl-TXUR-41" target="Xdzrd-eJbgTLkWl-TXUR-45" edge="1">
          <mxGeometry relative="1" as="geometry" />
        </mxCell>
        <mxCell id="Xdzrd-eJbgTLkWl-TXUR-41" value="Kill fire and when he comes down, attack" style="rhombus;whiteSpace=wrap;html=1;" parent="1" vertex="1">
          <mxGeometry x="-300" y="1860" width="100" height="80" as="geometry" />
        </mxCell>
        <mxCell id="Y9lRs_yaJHrwRUdyuxTt-19" value="" style="edgeStyle=orthogonalEdgeStyle;rounded=0;orthogonalLoop=1;jettySize=auto;html=1;" parent="1" source="Xdzrd-eJbgTLkWl-TXUR-43" target="Xdzrd-eJbgTLkWl-TXUR-47" edge="1">
          <mxGeometry relative="1" as="geometry" />
        </mxCell>
        <mxCell id="Xdzrd-eJbgTLkWl-TXUR-43" value="IF KNIFE, you ambush successfully&amp;nbsp;" style="whiteSpace=wrap;html=1;" parent="1" vertex="1">
          <mxGeometry x="-485" y="1870" width="120" height="60" as="geometry" />
        </mxCell>
        <mxCell id="Xdzrd-eJbgTLkWl-TXUR-45" value="IF KNIFE NOT, he wins the fight and shoots you.&lt;div&gt;&lt;br&gt;&lt;/div&gt;&lt;div&gt;&lt;b&gt;GAME OVER&lt;/b&gt;&lt;/div&gt;" style="whiteSpace=wrap;html=1;" parent="1" vertex="1">
          <mxGeometry x="-155" y="1860" width="130" height="80" as="geometry" />
        </mxCell>
        <mxCell id="Y9lRs_yaJHrwRUdyuxTt-4" value="" style="edgeStyle=orthogonalEdgeStyle;rounded=0;orthogonalLoop=1;jettySize=auto;html=1;" parent="1" source="Xdzrd-eJbgTLkWl-TXUR-47" target="Y9lRs_yaJHrwRUdyuxTt-3" edge="1">
          <mxGeometry relative="1" as="geometry" />
        </mxCell>
        <mxCell id="Xdzrd-eJbgTLkWl-TXUR-47" value="Items in backpack:&lt;div&gt;&lt;br&gt;&lt;/div&gt;&lt;div&gt;1. Revolver (original amount+4/6)&lt;/div&gt;&lt;div&gt;2. First aid kit (3)&lt;/div&gt;&lt;div&gt;3. Rations (4 meals/two bottles (purification effect))&lt;/div&gt;&lt;div&gt;4. Bear spray&amp;nbsp;&lt;/div&gt;&lt;div&gt;5. Flash light&amp;nbsp;&lt;/div&gt;&lt;div&gt;6. Knives.&lt;/div&gt;&lt;div&gt;&lt;br&gt;&lt;/div&gt;&lt;div&gt;&lt;br&gt;&lt;/div&gt;" style="whiteSpace=wrap;html=1;" parent="1" vertex="1">
          <mxGeometry x="-510" y="2000" width="170" height="180" as="geometry" />
        </mxCell>
        <mxCell id="Xdzrd-eJbgTLkWl-TXUR-52" value="" style="curved=1;endArrow=classic;html=1;rounded=0;entryX=1;entryY=0.5;entryDx=0;entryDy=0;exitX=0.5;exitY=1;exitDx=0;exitDy=0;" parent="1" source="Y9lRs_yaJHrwRUdyuxTt-1" target="Xdzrd-eJbgTLkWl-TXUR-47" edge="1">
          <mxGeometry width="50" height="50" relative="1" as="geometry">
            <mxPoint x="590" y="1120" as="sourcePoint" />
            <mxPoint x="-190" y="2210" as="targetPoint" />
            <Array as="points">
              <mxPoint x="650" y="1280" />
              <mxPoint x="610" y="1640" />
              <mxPoint x="540" y="1860" />
              <mxPoint x="250" y="2120" />
            </Array>
          </mxGeometry>
        </mxCell>
        <mxCell id="Y9lRs_yaJHrwRUdyuxTt-1" value="You take his supplies and keep going till the next morning" style="whiteSpace=wrap;html=1;aspect=fixed;" parent="1" vertex="1">
          <mxGeometry x="540" y="1100" width="80" height="80" as="geometry" />
        </mxCell>
        <mxCell id="Y9lRs_yaJHrwRUdyuxTt-6" value="" style="edgeStyle=orthogonalEdgeStyle;rounded=0;orthogonalLoop=1;jettySize=auto;html=1;" parent="1" source="Y9lRs_yaJHrwRUdyuxTt-3" target="Y9lRs_yaJHrwRUdyuxTt-5" edge="1">
          <mxGeometry relative="1" as="geometry" />
        </mxCell>
        <mxCell id="Y9lRs_yaJHrwRUdyuxTt-8" value="" style="edgeStyle=orthogonalEdgeStyle;rounded=0;orthogonalLoop=1;jettySize=auto;html=1;" parent="1" source="Y9lRs_yaJHrwRUdyuxTt-3" target="Y9lRs_yaJHrwRUdyuxTt-7" edge="1">
          <mxGeometry relative="1" as="geometry" />
        </mxCell>
        <mxCell id="Y9lRs_yaJHrwRUdyuxTt-3" value="You pack up and continue up the mountain for two more days until you get to the mini-base. You notice a pack of coyotes has made that their base. Fight or head down the mountain." style="whiteSpace=wrap;html=1;aspect=fixed;" parent="1" vertex="1">
          <mxGeometry x="-510" y="2240" width="170" height="170" as="geometry" />
        </mxCell>
        <mxCell id="Y9lRs_yaJHrwRUdyuxTt-14" value="" style="edgeStyle=orthogonalEdgeStyle;rounded=0;orthogonalLoop=1;jettySize=auto;html=1;" parent="1" source="Y9lRs_yaJHrwRUdyuxTt-5" target="Y9lRs_yaJHrwRUdyuxTt-13" edge="1">
          <mxGeometry relative="1" as="geometry" />
        </mxCell>
        <mxCell id="Y9lRs_yaJHrwRUdyuxTt-5" value="Fight 6 coyotes&amp;nbsp;" style="rhombus;whiteSpace=wrap;html=1;" parent="1" vertex="1">
          <mxGeometry x="-640" y="2285" width="80" height="80" as="geometry" />
        </mxCell>
        <mxCell id="Y9lRs_yaJHrwRUdyuxTt-10" value="" style="edgeStyle=orthogonalEdgeStyle;rounded=0;orthogonalLoop=1;jettySize=auto;html=1;" parent="1" source="Y9lRs_yaJHrwRUdyuxTt-7" target="Y9lRs_yaJHrwRUdyuxTt-9" edge="1">
          <mxGeometry relative="1" as="geometry" />
        </mxCell>
        <mxCell id="Y9lRs_yaJHrwRUdyuxTt-7" value="Head down the mountain" style="rhombus;whiteSpace=wrap;html=1;" parent="1" vertex="1">
          <mxGeometry x="-290" y="2285" width="170" height="80" as="geometry" />
        </mxCell>
        <mxCell id="Y9lRs_yaJHrwRUdyuxTt-9" value="You head down and on your way kill a couple wild animals but eventually run out of supplies and get killed.&lt;div&gt;&lt;br&gt;&lt;/div&gt;&lt;div&gt;&lt;b&gt;GAME OVER&lt;/b&gt;&lt;/div&gt;" style="whiteSpace=wrap;html=1;" parent="1" vertex="1">
          <mxGeometry x="-292.5" y="2400" width="175" height="120" as="geometry" />
        </mxCell>
        <mxCell id="Y9lRs_yaJHrwRUdyuxTt-13" value="Depends on items gotten" style="shape=parallelogram;perimeter=parallelogramPerimeter;whiteSpace=wrap;html=1;fixedSize=1;" parent="1" vertex="1">
          <mxGeometry x="-710" y="2410" width="170" height="60" as="geometry" />
        </mxCell>
        <mxCell id="Y9lRs_yaJHrwRUdyuxTt-15" value="Make it harder" style="text;html=1;align=center;verticalAlign=middle;whiteSpace=wrap;rounded=0;" parent="1" vertex="1">
          <mxGeometry x="-600" y="2240" width="60" height="30" as="geometry" />
        </mxCell>
        <mxCell id="Y9lRs_yaJHrwRUdyuxTt-16" value="You both keep going up the mountain, you eventually lack enough rations, and he kills and eats you to survive.&lt;div&gt;&lt;br&gt;&lt;/div&gt;&lt;div&gt;&lt;b&gt;GAME OVER&lt;/b&gt;&lt;/div&gt;" style="whiteSpace=wrap;html=1;aspect=fixed;" parent="1" vertex="1">
          <mxGeometry x="230" y="1740" width="160" height="160" as="geometry" />
        </mxCell>
        <mxCell id="Y9lRs_yaJHrwRUdyuxTt-20" value="If no weapons, option not available" style="text;html=1;align=center;verticalAlign=middle;whiteSpace=wrap;rounded=0;" parent="1" vertex="1">
          <mxGeometry x="633" y="1015" width="60" height="30" as="geometry" />
        </mxCell>
        <mxCell id="gim3D4EE_I01u1yyUH6l-6" value="" style="edgeStyle=orthogonalEdgeStyle;rounded=0;orthogonalLoop=1;jettySize=auto;html=1;" parent="1" source="gim3D4EE_I01u1yyUH6l-1" target="gim3D4EE_I01u1yyUH6l-5" edge="1">
          <mxGeometry relative="1" as="geometry" />
        </mxCell>
        <mxCell id="gim3D4EE_I01u1yyUH6l-1" value="You keep walking and soon see another person. She laying on the floor beside 2 dead Jackals and seems to be bleeding.&amp;nbsp;" style="whiteSpace=wrap;html=1;aspect=fixed;" parent="1" vertex="1">
          <mxGeometry x="965" y="455" width="130" height="130" as="geometry" />
        </mxCell>
        <mxCell id="gim3D4EE_I01u1yyUH6l-8" value="" style="edgeStyle=orthogonalEdgeStyle;rounded=0;orthogonalLoop=1;jettySize=auto;html=1;" parent="1" source="gim3D4EE_I01u1yyUH6l-5" target="gim3D4EE_I01u1yyUH6l-7" edge="1">
          <mxGeometry relative="1" as="geometry" />
        </mxCell>
        <mxCell id="gim3D4EE_I01u1yyUH6l-10" value="" style="edgeStyle=orthogonalEdgeStyle;rounded=0;orthogonalLoop=1;jettySize=auto;html=1;" parent="1" source="gim3D4EE_I01u1yyUH6l-5" target="gim3D4EE_I01u1yyUH6l-9" edge="1">
          <mxGeometry relative="1" as="geometry" />
        </mxCell>
        <mxCell id="gim3D4EE_I01u1yyUH6l-5" value="&lt;b&gt;IF&lt;/b&gt; first aid, save her or let her die.&amp;nbsp;" style="whiteSpace=wrap;html=1;" parent="1" vertex="1">
          <mxGeometry x="970" y="640" width="120" height="60" as="geometry" />
        </mxCell>
        <mxCell id="gGQnlAIBDYrArhdFHhKF-8" value="" style="edgeStyle=orthogonalEdgeStyle;rounded=0;orthogonalLoop=1;jettySize=auto;html=1;" edge="1" parent="1" source="gim3D4EE_I01u1yyUH6l-7" target="gGQnlAIBDYrArhdFHhKF-7">
          <mxGeometry relative="1" as="geometry" />
        </mxCell>
        <mxCell id="gim3D4EE_I01u1yyUH6l-7" value="Save her" style="rhombus;whiteSpace=wrap;html=1;" parent="1" vertex="1">
          <mxGeometry x="850" y="630" width="80" height="80" as="geometry" />
        </mxCell>
        <mxCell id="gGQnlAIBDYrArhdFHhKF-2" value="" style="edgeStyle=orthogonalEdgeStyle;rounded=0;orthogonalLoop=1;jettySize=auto;html=1;" edge="1" parent="1" source="gim3D4EE_I01u1yyUH6l-9" target="gGQnlAIBDYrArhdFHhKF-1">
          <mxGeometry relative="1" as="geometry" />
        </mxCell>
        <mxCell id="gim3D4EE_I01u1yyUH6l-9" value="Let her die" style="rhombus;whiteSpace=wrap;html=1;" parent="1" vertex="1">
          <mxGeometry x="1120" y="630" width="80" height="80" as="geometry" />
        </mxCell>
        <mxCell id="gGQnlAIBDYrArhdFHhKF-4" value="" style="edgeStyle=orthogonalEdgeStyle;rounded=0;orthogonalLoop=1;jettySize=auto;html=1;" edge="1" parent="1" source="gGQnlAIBDYrArhdFHhKF-1" target="gGQnlAIBDYrArhdFHhKF-3">
          <mxGeometry relative="1" as="geometry" />
        </mxCell>
        <mxCell id="gGQnlAIBDYrArhdFHhKF-6" value="" style="edgeStyle=orthogonalEdgeStyle;rounded=0;orthogonalLoop=1;jettySize=auto;html=1;" edge="1" parent="1" source="gGQnlAIBDYrArhdFHhKF-1" target="gGQnlAIBDYrArhdFHhKF-5">
          <mxGeometry relative="1" as="geometry" />
        </mxCell>
        <mxCell id="gGQnlAIBDYrArhdFHhKF-1" value="&amp;nbsp;You obtained a &lt;b&gt;knife, gas mask&amp;nbsp;&lt;/b&gt;and &lt;b&gt;some rations&lt;/b&gt;. You proceed down and eventually see a pack of jackals. They see you too. Run or attack." style="whiteSpace=wrap;html=1;" vertex="1" parent="1">
          <mxGeometry x="1287.5" y="730" width="145" height="100" as="geometry" />
        </mxCell>
        <mxCell id="gGQnlAIBDYrArhdFHhKF-21" value="" style="edgeStyle=orthogonalEdgeStyle;rounded=0;orthogonalLoop=1;jettySize=auto;html=1;" edge="1" parent="1" source="gGQnlAIBDYrArhdFHhKF-3" target="gGQnlAIBDYrArhdFHhKF-11">
          <mxGeometry relative="1" as="geometry" />
        </mxCell>
        <mxCell id="gGQnlAIBDYrArhdFHhKF-3" value="Attack" style="rhombus;whiteSpace=wrap;html=1;" vertex="1" parent="1">
          <mxGeometry x="1480" y="740" width="80" height="80" as="geometry" />
        </mxCell>
        <mxCell id="gGQnlAIBDYrArhdFHhKF-23" value="" style="edgeStyle=orthogonalEdgeStyle;rounded=0;orthogonalLoop=1;jettySize=auto;html=1;" edge="1" parent="1" source="gGQnlAIBDYrArhdFHhKF-5" target="gGQnlAIBDYrArhdFHhKF-22">
          <mxGeometry relative="1" as="geometry" />
        </mxCell>
        <mxCell id="gGQnlAIBDYrArhdFHhKF-5" value="Run" style="rhombus;whiteSpace=wrap;html=1;" vertex="1" parent="1">
          <mxGeometry x="1160" y="740" width="80" height="80" as="geometry" />
        </mxCell>
        <mxCell id="gGQnlAIBDYrArhdFHhKF-16" value="" style="edgeStyle=orthogonalEdgeStyle;rounded=0;orthogonalLoop=1;jettySize=auto;html=1;" edge="1" parent="1" source="gGQnlAIBDYrArhdFHhKF-11" target="gGQnlAIBDYrArhdFHhKF-15">
          <mxGeometry relative="1" as="geometry" />
        </mxCell>
        <mxCell id="gGQnlAIBDYrArhdFHhKF-20" value="" style="edgeStyle=orthogonalEdgeStyle;rounded=0;orthogonalLoop=1;jettySize=auto;html=1;" edge="1" parent="1" source="gGQnlAIBDYrArhdFHhKF-11" target="gGQnlAIBDYrArhdFHhKF-19">
          <mxGeometry relative="1" as="geometry" />
        </mxCell>
        <mxCell id="gGQnlAIBDYrArhdFHhKF-11" value="IF gun is equipped and bullets &amp;gt;2" style="whiteSpace=wrap;html=1;" vertex="1" parent="1">
          <mxGeometry x="1460" y="900" width="120" height="60" as="geometry" />
        </mxCell>
        <mxCell id="gGQnlAIBDYrArhdFHhKF-18" value="" style="edgeStyle=orthogonalEdgeStyle;rounded=0;orthogonalLoop=1;jettySize=auto;html=1;" edge="1" parent="1" source="gGQnlAIBDYrArhdFHhKF-15" target="gGQnlAIBDYrArhdFHhKF-17">
          <mxGeometry relative="1" as="geometry" />
        </mxCell>
        <mxCell id="gGQnlAIBDYrArhdFHhKF-15" value="False" style="rhombus;whiteSpace=wrap;html=1;" vertex="1" parent="1">
          <mxGeometry x="1640" y="890" width="80" height="80" as="geometry" />
        </mxCell>
        <mxCell id="gGQnlAIBDYrArhdFHhKF-17" value="&lt;div&gt;You tried to fight...You died&amp;nbsp;&lt;/div&gt;&lt;div&gt;&lt;br&gt;&lt;/div&gt;&lt;div&gt;&lt;b&gt;GAME OVER&lt;/b&gt;&lt;/div&gt;" style="whiteSpace=wrap;html=1;" vertex="1" parent="1">
          <mxGeometry x="1630" y="1000" width="100" height="60" as="geometry" />
        </mxCell>
        <mxCell id="gGQnlAIBDYrArhdFHhKF-25" value="" style="edgeStyle=orthogonalEdgeStyle;rounded=0;orthogonalLoop=1;jettySize=auto;html=1;" edge="1" parent="1" source="gGQnlAIBDYrArhdFHhKF-19" target="gGQnlAIBDYrArhdFHhKF-24">
          <mxGeometry relative="1" as="geometry" />
        </mxCell>
        <mxCell id="gGQnlAIBDYrArhdFHhKF-19" value="True" style="rhombus;whiteSpace=wrap;html=1;" vertex="1" parent="1">
          <mxGeometry x="1320" y="890" width="80" height="80" as="geometry" />
        </mxCell>
        <mxCell id="gGQnlAIBDYrArhdFHhKF-22" value="You tried to run, you failed hilariously!&lt;div&gt;&lt;br&gt;&lt;/div&gt;&lt;div&gt;&lt;b&gt;GAME OVER&lt;/b&gt;&lt;/div&gt;" style="whiteSpace=wrap;html=1;" vertex="1" parent="1">
          <mxGeometry x="1140" y="850" width="120" height="60" as="geometry" />
        </mxCell>
        <mxCell id="gGQnlAIBDYrArhdFHhKF-29" value="" style="edgeStyle=orthogonalEdgeStyle;rounded=0;orthogonalLoop=1;jettySize=auto;html=1;" edge="1" parent="1" target="gGQnlAIBDYrArhdFHhKF-28">
          <mxGeometry relative="1" as="geometry">
            <mxPoint x="1325" y="1060" as="sourcePoint" />
          </mxGeometry>
        </mxCell>
        <mxCell id="gGQnlAIBDYrArhdFHhKF-41" value="" style="edgeStyle=orthogonalEdgeStyle;rounded=0;orthogonalLoop=1;jettySize=auto;html=1;" edge="1" parent="1" source="gGQnlAIBDYrArhdFHhKF-24" target="gGQnlAIBDYrArhdFHhKF-40">
          <mxGeometry relative="1" as="geometry" />
        </mxCell>
        <mxCell id="gGQnlAIBDYrArhdFHhKF-24" value="As you continue trekking, you see a split in the path. One side leads deeper into the forest, and side seems to lead to a field. Left path or right path" style="whiteSpace=wrap;html=1;" vertex="1" parent="1">
          <mxGeometry x="1285" y="1000" width="150" height="120" as="geometry" />
        </mxCell>
        <mxCell id="gGQnlAIBDYrArhdFHhKF-31" value="" style="edgeStyle=orthogonalEdgeStyle;rounded=0;orthogonalLoop=1;jettySize=auto;html=1;" edge="1" parent="1" source="gGQnlAIBDYrArhdFHhKF-28" target="gGQnlAIBDYrArhdFHhKF-30">
          <mxGeometry relative="1" as="geometry" />
        </mxCell>
        <mxCell id="gGQnlAIBDYrArhdFHhKF-28" value="Left path: Forest" style="rhombus;whiteSpace=wrap;html=1;" vertex="1" parent="1">
          <mxGeometry x="1130" y="1020" width="80" height="80" as="geometry" />
        </mxCell>
        <mxCell id="gGQnlAIBDYrArhdFHhKF-35" value="" style="edgeStyle=orthogonalEdgeStyle;rounded=0;orthogonalLoop=1;jettySize=auto;html=1;" edge="1" parent="1" source="gGQnlAIBDYrArhdFHhKF-30" target="gGQnlAIBDYrArhdFHhKF-34">
          <mxGeometry relative="1" as="geometry" />
        </mxCell>
        <mxCell id="gGQnlAIBDYrArhdFHhKF-37" value="" style="edgeStyle=orthogonalEdgeStyle;rounded=0;orthogonalLoop=1;jettySize=auto;html=1;" edge="1" parent="1" source="gGQnlAIBDYrArhdFHhKF-30" target="gGQnlAIBDYrArhdFHhKF-36">
          <mxGeometry relative="1" as="geometry" />
        </mxCell>
        <mxCell id="gGQnlAIBDYrArhdFHhKF-48" value="" style="edgeStyle=orthogonalEdgeStyle;rounded=0;orthogonalLoop=1;jettySize=auto;html=1;" edge="1" parent="1" source="gGQnlAIBDYrArhdFHhKF-30" target="gGQnlAIBDYrArhdFHhKF-47">
          <mxGeometry relative="1" as="geometry" />
        </mxCell>
        <mxCell id="gGQnlAIBDYrArhdFHhKF-30" value="Finally, you see some sort of building in a distance clearing, but as you walk trek over, you see a bear! Kill it, chase it away or run" style="whiteSpace=wrap;html=1;" vertex="1" parent="1">
          <mxGeometry x="1100" y="1135" width="140" height="95" as="geometry" />
        </mxCell>
        <mxCell id="gGQnlAIBDYrArhdFHhKF-46" value="" style="edgeStyle=orthogonalEdgeStyle;rounded=0;orthogonalLoop=1;jettySize=auto;html=1;" edge="1" parent="1" source="gGQnlAIBDYrArhdFHhKF-34" target="gGQnlAIBDYrArhdFHhKF-45">
          <mxGeometry relative="1" as="geometry" />
        </mxCell>
        <mxCell id="gGQnlAIBDYrArhdFHhKF-34" value="Kill it" style="rhombus;whiteSpace=wrap;html=1;" vertex="1" parent="1">
          <mxGeometry x="970" y="1142.5" width="80" height="80" as="geometry" />
        </mxCell>
        <mxCell id="gGQnlAIBDYrArhdFHhKF-39" value="" style="edgeStyle=orthogonalEdgeStyle;rounded=0;orthogonalLoop=1;jettySize=auto;html=1;" edge="1" parent="1" source="gGQnlAIBDYrArhdFHhKF-36" target="gGQnlAIBDYrArhdFHhKF-38">
          <mxGeometry relative="1" as="geometry" />
        </mxCell>
        <mxCell id="gGQnlAIBDYrArhdFHhKF-36" value="Run" style="rhombus;whiteSpace=wrap;html=1;" vertex="1" parent="1">
          <mxGeometry x="1290" y="1142.5" width="80" height="80" as="geometry" />
        </mxCell>
        <mxCell id="gGQnlAIBDYrArhdFHhKF-38" value="It sees you, chases you down and kills you...&lt;div&gt;&lt;br&gt;&lt;/div&gt;&lt;div&gt;&lt;b&gt;GAME OVER&lt;/b&gt;&lt;/div&gt;" style="whiteSpace=wrap;html=1;" vertex="1" parent="1">
          <mxGeometry x="1260" y="1262.5" width="140" height="97.5" as="geometry" />
        </mxCell>
        <mxCell id="gGQnlAIBDYrArhdFHhKF-44" value="" style="edgeStyle=orthogonalEdgeStyle;rounded=0;orthogonalLoop=1;jettySize=auto;html=1;" edge="1" parent="1" source="gGQnlAIBDYrArhdFHhKF-40" target="gGQnlAIBDYrArhdFHhKF-42">
          <mxGeometry relative="1" as="geometry" />
        </mxCell>
        <mxCell id="gGQnlAIBDYrArhdFHhKF-40" value="Right path: Field" style="rhombus;whiteSpace=wrap;html=1;" vertex="1" parent="1">
          <mxGeometry x="1520" y="1020" width="80" height="80" as="geometry" />
        </mxCell>
        <mxCell id="gGQnlAIBDYrArhdFHhKF-42" value="&lt;font style=&quot;font-size: 13px;&quot;&gt;IF User let Caliste die: You keep walking until you get to a field of flowers, but something doesn&#39;t smell right...It&#39;s poison! You try to use the gas mask but find out you don&#39;t know how to work it. You try to run back but...it is too late. Maybe next time don&#39;t kill random people&lt;/font&gt;&lt;div&gt;&lt;font style=&quot;font-size: 13px;&quot;&gt;&lt;br&gt;&lt;/font&gt;&lt;/div&gt;&lt;div&gt;&lt;font style=&quot;font-size: 13px;&quot;&gt;&lt;b&gt;GAME OVER&lt;/b&gt;&lt;/font&gt;&lt;/div&gt;" style="whiteSpace=wrap;html=1;" vertex="1" parent="1">
          <mxGeometry x="1435" y="1135" width="250" height="185" as="geometry" />
        </mxCell>
        <mxCell id="gGQnlAIBDYrArhdFHhKF-45" value="You try but fail hilariously....hahaha&lt;div&gt;&lt;br&gt;&lt;/div&gt;&lt;div&gt;&lt;b&gt;GAME OVER&lt;/b&gt;&lt;/div&gt;" style="whiteSpace=wrap;html=1;" vertex="1" parent="1">
          <mxGeometry x="950" y="1260" width="120" height="60" as="geometry" />
        </mxCell>
        <mxCell id="gGQnlAIBDYrArhdFHhKF-50" value="" style="edgeStyle=orthogonalEdgeStyle;rounded=0;orthogonalLoop=1;jettySize=auto;html=1;" edge="1" parent="1" source="gGQnlAIBDYrArhdFHhKF-47" target="gGQnlAIBDYrArhdFHhKF-49">
          <mxGeometry relative="1" as="geometry" />
        </mxCell>
        <mxCell id="gGQnlAIBDYrArhdFHhKF-47" value="Chase it" style="rhombus;whiteSpace=wrap;html=1;" vertex="1" parent="1">
          <mxGeometry x="1130" y="1262.5" width="80" height="80" as="geometry" />
        </mxCell>
        <mxCell id="gGQnlAIBDYrArhdFHhKF-52" value="" style="edgeStyle=orthogonalEdgeStyle;rounded=0;orthogonalLoop=1;jettySize=auto;html=1;" edge="1" parent="1" source="gGQnlAIBDYrArhdFHhKF-49" target="gGQnlAIBDYrArhdFHhKF-51">
          <mxGeometry relative="1" as="geometry" />
        </mxCell>
        <mxCell id="gGQnlAIBDYrArhdFHhKF-54" value="" style="edgeStyle=orthogonalEdgeStyle;rounded=0;orthogonalLoop=1;jettySize=auto;html=1;" edge="1" parent="1" source="gGQnlAIBDYrArhdFHhKF-49" target="gGQnlAIBDYrArhdFHhKF-53">
          <mxGeometry relative="1" as="geometry" />
        </mxCell>
        <mxCell id="gGQnlAIBDYrArhdFHhKF-49" value="IF Bear spray/if not" style="whiteSpace=wrap;html=1;" vertex="1" parent="1">
          <mxGeometry x="1110" y="1380" width="120" height="60" as="geometry" />
        </mxCell>
        <mxCell id="gGQnlAIBDYrArhdFHhKF-51" value="IF Bear spray, you chase it away successfully and make it to the building. You find a communication device and eventually get help, congratulations&lt;div&gt;&lt;br&gt;&lt;/div&gt;&lt;div&gt;&lt;font style=&quot;font-size: 12px;&quot;&gt;&lt;b&gt;GAME WON&lt;/b&gt;&lt;/font&gt;&lt;/div&gt;" style="whiteSpace=wrap;html=1;" vertex="1" parent="1">
          <mxGeometry x="900" y="1347.5" width="160" height="125" as="geometry" />
        </mxCell>
        <mxCell id="gGQnlAIBDYrArhdFHhKF-53" value="You fail hilariously and die&lt;div&gt;&lt;br&gt;&lt;/div&gt;&lt;div&gt;&lt;b&gt;GAME OVER&lt;/b&gt;&lt;/div&gt;" style="whiteSpace=wrap;html=1;" vertex="1" parent="1">
          <mxGeometry x="1310" y="1380" width="120" height="60" as="geometry" />
        </mxCell>
        <mxCell id="gGQnlAIBDYrArhdFHhKF-55" value="" style="curved=1;endArrow=classic;html=1;rounded=0;" edge="1" parent="1" source="gGQnlAIBDYrArhdFHhKF-7">
          <mxGeometry width="50" height="50" relative="1" as="geometry">
            <mxPoint x="890" y="900" as="sourcePoint" />
            <mxPoint x="940" y="850" as="targetPoint" />
            <Array as="points">
              <mxPoint x="890" y="850" />
            </Array>
          </mxGeometry>
        </mxCell>
        <mxCell id="gGQnlAIBDYrArhdFHhKF-7" value="You try to save her, using all means available, but are unable to delay her death for long. She asks you to stay with her as she passes. She also tells you how to use the gas mask for some reason. She eventually passes." style="whiteSpace=wrap;html=1;" vertex="1" parent="1">
          <mxGeometry x="800" y="740" width="180" height="155" as="geometry" />
        </mxCell>
        <mxCell id="gGQnlAIBDYrArhdFHhKF-57" value="" style="curved=1;endArrow=classic;html=1;rounded=0;exitX=0.466;exitY=0.994;exitDx=0;exitDy=0;exitPerimeter=0;entryX=0.5;entryY=0;entryDx=0;entryDy=0;" edge="1" parent="1" source="gGQnlAIBDYrArhdFHhKF-7" target="gGQnlAIBDYrArhdFHhKF-1">
          <mxGeometry width="50" height="50" relative="1" as="geometry">
            <mxPoint x="890" y="910" as="sourcePoint" />
            <mxPoint x="1120" y="800" as="targetPoint" />
            <Array as="points">
              <mxPoint x="1020" y="930" />
              <mxPoint x="1100" y="820" />
              <mxPoint x="1150" y="710" />
            </Array>
          </mxGeometry>
        </mxCell>
        <mxCell id="gGQnlAIBDYrArhdFHhKF-61" value="If user tried to help Caliste:&lt;div&gt;&lt;span style=&quot;font-size: 13px;&quot;&gt;You keep walking until you get to a field of flowers, but something doesn&#39;t smell right...It&#39;s poison! You use the gas mask and pass through safely. You continue going till you see a building in the distance you keep walking and eventually&amp;nbsp;&lt;/span&gt;&lt;span style=&quot;background-color: initial;&quot;&gt;&amp;nbsp;&lt;/span&gt;&lt;span style=&quot;background-color: initial;&quot;&gt;make it to the building. You find a communication device and eventually get help, congratulations&lt;span style=&quot;font-size: 13px;&quot;&gt;.&lt;/span&gt;&lt;/span&gt;&lt;/div&gt;&lt;div&gt;&lt;span style=&quot;background-color: initial;&quot;&gt;&lt;span style=&quot;font-size: 13px;&quot;&gt;&lt;br&gt;&lt;/span&gt;&lt;/span&gt;&lt;/div&gt;&lt;div&gt;&lt;span style=&quot;background-color: initial;&quot;&gt;&lt;span style=&quot;font-size: 13px;&quot;&gt;&lt;b&gt;GAME WON&lt;/b&gt;&lt;/span&gt;&lt;/span&gt;&lt;/div&gt;" style="rounded=0;whiteSpace=wrap;html=1;" vertex="1" parent="1">
          <mxGeometry x="1730" y="1143" width="260" height="197" as="geometry" />
        </mxCell>
      </root>
    </mxGraphModel>
  </diagram>
</mxfile>
